<svg width="29" height="29" viewBox="0 0 29 29" fill="none" xmlns="http://www.w3.org/2000/svg">
<g clip-path="url(#clip0_27_1118)">
<g opacity="0.7">
<path opacity="0.9" d="M5.03955 9.91162L4.63223 10.8767L23.9336 19.0233L24.3409 18.0583L5.03955 9.91162Z" fill="url(#paint0_linear_27_1118)"/>
<path opacity="0.9" d="M10.8966 24.322L9.93148 23.9147L18.0781 4.61328L19.0432 5.02063L10.8966 24.322Z" fill="url(#paint1_linear_27_1118)"/>
<path d="M14.8804 15.4383C15.4162 15.2205 15.6742 14.6094 15.4563 14.0735C15.2386 13.5375 14.6275 13.2796 14.0916 13.4974C13.5556 13.7152 13.2977 14.3262 13.5155 14.8622C13.7333 15.3982 14.3444 15.6561 14.8804 15.4383Z" fill="white"/>
</g>
</g>
<defs>
<linearGradient id="paint0_linear_27_1118" x1="4.83572" y1="10.3945" x2="24.1369" y2="18.5411" gradientUnits="userSpaceOnUse">
<stop stop-color="white" stop-opacity="0"/>
<stop offset="0.5" stop-color="white"/>
<stop offset="0.875" stop-color="white" stop-opacity="0.25"/>
<stop offset="1" stop-color="white" stop-opacity="0"/>
</linearGradient>
<linearGradient id="paint1_linear_27_1118" x1="10.414" y1="24.1183" x2="18.5607" y2="4.81695" gradientUnits="userSpaceOnUse">
<stop stop-color="white" stop-opacity="0"/>
<stop offset="0.5" stop-color="white"/>
<stop offset="1" stop-color="white" stop-opacity="0"/>
</linearGradient>
<clipPath id="clip0_27_1118">
<rect width="21" height="21" fill="white" transform="translate(8.90918 0.743408) rotate(22.8834)"/>
</clipPath>
</defs>
</svg>